<svg width="92" height="40" viewBox="0 0 92 40" fill="none" xmlns="http://www.w3.org/2000/svg">
<g clip-path="url(#clip0_870_2)">
<path d="M51.041 0.380588L40.1572 6.4567H43.0622C43.6135 6.48202 44.1606 6.35001 44.6395 6.07613L51.0804 2.48033C51.54 2.21541 52.0614 2.07594 52.5921 2.07594C53.1228 2.07594 53.6441 2.21541 54.1037 2.48033L60.4132 6.24673C60.8698 6.52064 61.3922 6.66578 61.9248 6.66668H64.8298L54.1037 0.419958C53.6252 0.141289 53.0804 -0.00375867 52.5264 1.05971e-05C52.0201 0.00455015 51.5231 0.135376 51.0804 0.380588" fill="url(#paint0_linear_870_2)"/>
<path d="M27.1439 11.811L37.8568 18.189C38.3144 18.4528 38.8335 18.5916 39.3619 18.5916C39.8903 18.5916 40.4094 18.4528 40.867 18.189L51.7508 12.1129H48.8458C48.3163 12.1108 47.7953 12.2465 47.3342 12.5066L40.8933 16.0893C40.4357 16.353 39.9166 16.4919 39.3882 16.4919C38.8598 16.4919 38.3407 16.353 37.8831 16.0893L31.4948 12.3491C31.0421 12.0758 30.5252 11.9264 29.9963 11.916H27.1439V11.811Z" fill="url(#paint1_linear_870_2)"/>
<path d="M33.151 8.39893C33.4147 8.86558 33.7961 9.25524 34.2573 9.5292C34.7184 9.80316 35.2434 9.95188 35.78 9.96061H57.5345L57.127 9.47504C56.837 9.1388 56.478 8.8687 56.0743 8.68304C55.6706 8.49738 55.2317 8.40049 54.7873 8.39893H33.151Z" fill="url(#paint2_linear_870_2)"/>
<path d="M3.16788 39.7113C2.50205 39.5415 1.86129 39.2856 1.26189 38.9501C0.768258 38.6383 0.325026 38.2533 -0.0525818 37.8084L1.6168 35.9842C1.90715 36.273 2.22902 36.5283 2.57637 36.7454C2.98023 37.0203 3.42339 37.2327 3.89084 37.3753C4.42116 37.5697 4.98214 37.6675 5.54708 37.664C6.08181 37.679 6.61401 37.5853 7.1113 37.3884C7.50219 37.2481 7.8601 37.0293 8.16288 36.7454C8.26262 36.6773 8.34772 36.5899 8.41318 36.4885C8.47864 36.3871 8.52315 36.2737 8.54407 36.1548C8.53795 36.0568 8.50371 35.9626 8.44544 35.8835C8.38717 35.8044 8.30733 35.7437 8.21546 35.7086C7.93052 35.5761 7.62245 35.5004 7.30847 35.4855C6.90098 35.4855 6.45406 35.3937 5.994 35.3674L4.50864 35.3018C4.01257 35.2474 3.52072 35.1597 3.03643 35.0393C2.56837 34.9369 2.12293 34.7501 1.72196 34.4882C1.32679 34.2527 1.00044 33.9179 0.775537 33.517C0.525414 33.0405 0.407422 32.5058 0.433773 31.9685C0.421809 31.3171 0.645866 30.6833 1.06472 30.1837C1.53457 29.6025 2.14541 29.1507 2.83926 28.8714C3.70595 28.517 4.63717 28.3472 5.57337 28.3727C6.30055 28.362 7.0258 28.4503 7.7291 28.6351C8.31003 28.7975 8.86693 29.0358 9.38534 29.3438C9.87068 29.6304 10.3132 29.9839 10.6998 30.3937L8.85955 32.0472C8.57346 31.7854 8.26565 31.5484 7.93942 31.3386C7.6197 31.1405 7.27488 30.986 6.91413 30.8792C6.44208 30.7593 5.9547 30.7106 5.46821 30.7349C4.80856 30.7229 4.15405 30.8527 3.54908 31.1155C2.98385 31.391 2.70781 31.6535 2.70781 31.9029C2.70591 32.0195 2.74029 32.1339 2.8062 32.2303C2.87211 32.3266 2.96633 32.4002 3.07587 32.4409C3.39736 32.6005 3.74437 32.7027 4.10115 32.7428C4.53493 32.7428 5.03443 32.8609 5.57337 32.9134C6.1123 32.9659 6.78268 33.0315 7.38734 33.1233C7.99119 33.2302 8.58173 33.4018 9.14873 33.6351C9.65893 33.8294 10.1113 34.1501 10.4632 34.5669C10.8137 35.0351 10.9903 35.6103 10.9627 36.1942C10.9391 36.8744 10.6946 37.5285 10.266 38.0577C9.76756 38.676 9.1211 39.1589 8.38634 39.4619C7.45018 39.8327 6.44875 40.0112 5.44192 39.9869C4.67358 39.9915 3.9083 39.89 3.16788 39.685" fill="#2D2D2B"/>
<path d="M25.3562 39.7113L22.2277 31.8898L18.8233 39.7113H16.26L11.6725 28.7271H14.7747L17.6271 36.273L20.887 28.7271H23.5948L26.6444 36.273L29.7071 28.7271H32.5069L27.9194 39.7113H25.3562Z" fill="#2D2D2B"/>
<path d="M30.9558 39.7113L36.4503 28.7271H39.0136L44.5212 39.7113H41.6819L37.7385 31.6273L33.7951 39.7113H30.9558Z" fill="#2D2D2B"/>
<path d="M45.8751 28.727H52.5264C53.2429 28.7114 53.952 28.8737 54.5901 29.1995C55.1443 29.5033 55.6003 29.9585 55.9046 30.5118C56.2548 31.0914 56.4495 31.7513 56.4698 32.4278C56.4824 32.9172 56.3919 33.4038 56.2039 33.856C56.0159 34.3082 55.7348 34.7159 55.3788 35.0525C55.0078 35.4041 54.5701 35.678 54.0916 35.8583C53.613 36.0386 53.1032 36.1216 52.5921 36.1024H48.5041V39.6719H45.8751V33.7533H52.5264C52.6897 33.7582 52.8523 33.7292 53.0039 33.6682C53.1555 33.6072 53.2927 33.5156 53.4071 33.399C53.6489 33.1249 53.7718 32.7661 53.7488 32.4016C53.7624 32.2168 53.7366 32.0312 53.6732 31.857C53.6098 31.6828 53.5101 31.524 53.3808 31.3911C53.1535 31.1658 52.8467 31.0386 52.5264 31.0368H45.8751V28.727Z" fill="#2D2D2B"/>
<path d="M57.7842 28.727H64.4618C65.1784 28.7097 65.888 28.8721 66.5255 29.1995C67.0797 29.5033 67.5357 29.9585 67.84 30.5118C68.1535 31.1012 68.3118 31.7605 68.3 32.4278C68.3119 32.9159 68.2223 33.4012 68.0368 33.853C67.8512 34.3048 67.5739 34.7132 67.2222 35.0525C66.4632 35.7559 65.4575 36.133 64.4223 36.1024H60.4132V39.6719H57.7842V33.7533H64.4618C64.6253 33.7598 64.7884 33.7316 64.9402 33.6705C65.092 33.6094 65.2291 33.5169 65.3425 33.3989C65.5843 33.1248 65.7072 32.7661 65.6842 32.4016C65.6978 32.2167 65.6721 32.0311 65.6086 31.857C65.5452 31.6828 65.4455 31.524 65.3162 31.3911C65.0889 31.1658 64.7821 31.0385 64.4618 31.0367H57.7842V28.727Z" fill="#2D2D2B"/>
<path d="M69.7065 28.7271H79.5125V31.0761H69.7065V28.7271ZM78.3295 35.4331H69.7065V33.0446H78.3295V35.4331ZM79.5125 39.7507H69.7065V37.3885H79.5125V39.7507Z" fill="#2D2D2B"/>
<path d="M80.8795 28.7271H87.5571C88.2694 28.7114 88.9743 28.8738 89.6077 29.1995C90.1619 29.5033 90.6178 29.9585 90.9221 30.5118C91.2583 31.1137 91.4347 31.7913 91.4347 32.4803C91.4347 33.1694 91.2583 33.847 90.9221 34.4488C90.5913 35.009 90.1082 35.4641 89.5288 35.7612L91.9606 39.7638H88.9636L86.821 36.1942H83.5742V39.7638H80.9453V33.8452H87.6228C87.7861 33.85 87.9487 33.8211 88.1003 33.7601C88.2519 33.6991 88.3892 33.6074 88.5035 33.4908C88.6241 33.3561 88.7155 33.198 88.7721 33.0264C88.8286 32.8548 88.8491 32.6733 88.8321 32.4935C88.8474 32.3096 88.8237 32.1245 88.7626 31.9504C88.7014 31.7763 88.6042 31.617 88.4772 31.483C88.2499 31.2577 87.9431 31.1304 87.6228 31.1286H80.9453L80.8795 28.7271Z" fill="#2D2D2B"/>
</g>
<defs>
<linearGradient id="paint0_linear_870_2" x1="17.2459" y1="3.33334" x2="62.0563" y2="3.33334" gradientUnits="userSpaceOnUse">
<stop stop-color="#6BC4EF"/>
<stop offset="1" stop-color="#2D56A2"/>
</linearGradient>
<linearGradient id="paint1_linear_870_2" x1="28.1429" y1="23.2677" x2="61.9617" y2="-10.6062" gradientUnits="userSpaceOnUse">
<stop stop-color="#6BC4EF"/>
<stop offset="1" stop-color="#2D56A2"/>
</linearGradient>
<linearGradient id="paint2_linear_870_2" x1="29.6808" y1="24.8162" x2="63.5128" y2="-9.05771" gradientUnits="userSpaceOnUse">
<stop stop-color="#6BC4EF"/>
<stop offset="1" stop-color="#2D56A2"/>
</linearGradient>
<clipPath id="clip0_870_2">
<rect width="92" height="40" fill="white"/>
</clipPath>
</defs>
</svg>
